<mxfile host="Electron" modified="2024-02-07T16:57:30.607Z" agent="Mozilla/5.0 (Macintosh; Intel Mac OS X 10_15_7) AppleWebKit/537.36 (KHTML, like Gecko) draw.io/23.0.2 Chrome/120.0.6099.109 Electron/28.1.0 Safari/537.36" etag="UpIiVrJAHtFlxArFPXaT" version="23.0.2" type="device">
  <diagram name="Page-1" id="anuovr1NJjBjm78ncV5i">
    <mxGraphModel dx="685" dy="1671" grid="1" gridSize="10" guides="1" tooltips="1" connect="1" arrows="1" fold="1" page="1" pageScale="1" pageWidth="827" pageHeight="1169" math="0" shadow="0">
      <root>
        <mxCell id="0" />
        <mxCell id="1" parent="0" />
        <mxCell id="LXHgbnVBe5iBIq8MEzDh-3" value="" style="rounded=0;whiteSpace=wrap;html=1;sketch=1;hachureGap=4;jiggle=2;curveFitting=1;fontFamily=Architects Daughter;fontSource=https%3A%2F%2Ffonts.googleapis.com%2Fcss%3Ffamily%3DArchitects%2BDaughter;fontSize=20;" vertex="1" parent="1">
          <mxGeometry x="160" y="280" width="420" height="280" as="geometry" />
        </mxCell>
        <mxCell id="LXHgbnVBe5iBIq8MEzDh-4" value="Computer&#39;s memory" style="text;html=1;strokeColor=none;fillColor=none;align=center;verticalAlign=middle;whiteSpace=wrap;rounded=0;fontSize=20;fontFamily=Architects Daughter;" vertex="1" parent="1">
          <mxGeometry x="140" y="290" width="250" height="30" as="geometry" />
        </mxCell>
        <mxCell id="LXHgbnVBe5iBIq8MEzDh-5" value="" style="rounded=0;whiteSpace=wrap;html=1;sketch=1;hachureGap=4;jiggle=2;curveFitting=1;fontFamily=Architects Daughter;fontSource=https%3A%2F%2Ffonts.googleapis.com%2Fcss%3Ffamily%3DArchitects%2BDaughter;fontSize=20;" vertex="1" parent="1">
          <mxGeometry x="170" y="330" width="30" height="60" as="geometry" />
        </mxCell>
        <mxCell id="LXHgbnVBe5iBIq8MEzDh-6" value="" style="rounded=0;whiteSpace=wrap;html=1;sketch=1;hachureGap=4;jiggle=2;curveFitting=1;fontFamily=Architects Daughter;fontSource=https%3A%2F%2Ffonts.googleapis.com%2Fcss%3Ffamily%3DArchitects%2BDaughter;fontSize=20;" vertex="1" parent="1">
          <mxGeometry x="210" y="330" width="30" height="60" as="geometry" />
        </mxCell>
        <mxCell id="LXHgbnVBe5iBIq8MEzDh-7" value="" style="rounded=0;whiteSpace=wrap;html=1;sketch=1;hachureGap=4;jiggle=2;curveFitting=1;fontFamily=Architects Daughter;fontSource=https%3A%2F%2Ffonts.googleapis.com%2Fcss%3Ffamily%3DArchitects%2BDaughter;fontSize=20;" vertex="1" parent="1">
          <mxGeometry x="250" y="330" width="30" height="60" as="geometry" />
        </mxCell>
        <mxCell id="LXHgbnVBe5iBIq8MEzDh-8" value="" style="rounded=0;whiteSpace=wrap;html=1;sketch=1;hachureGap=4;jiggle=2;curveFitting=1;fontFamily=Architects Daughter;fontSource=https%3A%2F%2Ffonts.googleapis.com%2Fcss%3Ffamily%3DArchitects%2BDaughter;fontSize=20;" vertex="1" parent="1">
          <mxGeometry x="290" y="330" width="30" height="60" as="geometry" />
        </mxCell>
        <mxCell id="LXHgbnVBe5iBIq8MEzDh-9" value="" style="rounded=0;whiteSpace=wrap;html=1;sketch=1;hachureGap=4;jiggle=2;curveFitting=1;fontFamily=Architects Daughter;fontSource=https%3A%2F%2Ffonts.googleapis.com%2Fcss%3Ffamily%3DArchitects%2BDaughter;fontSize=20;" vertex="1" parent="1">
          <mxGeometry x="330" y="330" width="30" height="60" as="geometry" />
        </mxCell>
        <mxCell id="LXHgbnVBe5iBIq8MEzDh-10" value="" style="rounded=0;whiteSpace=wrap;html=1;sketch=1;hachureGap=4;jiggle=2;curveFitting=1;fontFamily=Architects Daughter;fontSource=https%3A%2F%2Ffonts.googleapis.com%2Fcss%3Ffamily%3DArchitects%2BDaughter;fontSize=20;" vertex="1" parent="1">
          <mxGeometry x="370" y="330" width="30" height="60" as="geometry" />
        </mxCell>
        <mxCell id="LXHgbnVBe5iBIq8MEzDh-11" value="" style="rounded=0;whiteSpace=wrap;html=1;sketch=1;hachureGap=4;jiggle=2;curveFitting=1;fontFamily=Architects Daughter;fontSource=https%3A%2F%2Ffonts.googleapis.com%2Fcss%3Ffamily%3DArchitects%2BDaughter;fontSize=20;" vertex="1" parent="1">
          <mxGeometry x="410" y="330" width="30" height="60" as="geometry" />
        </mxCell>
        <mxCell id="LXHgbnVBe5iBIq8MEzDh-12" value="" style="rounded=0;whiteSpace=wrap;html=1;sketch=1;hachureGap=4;jiggle=2;curveFitting=1;fontFamily=Architects Daughter;fontSource=https%3A%2F%2Ffonts.googleapis.com%2Fcss%3Ffamily%3DArchitects%2BDaughter;fontSize=20;" vertex="1" parent="1">
          <mxGeometry x="450" y="330" width="30" height="60" as="geometry" />
        </mxCell>
        <mxCell id="LXHgbnVBe5iBIq8MEzDh-13" value="" style="rounded=0;whiteSpace=wrap;html=1;sketch=1;hachureGap=4;jiggle=2;curveFitting=1;fontFamily=Architects Daughter;fontSource=https%3A%2F%2Ffonts.googleapis.com%2Fcss%3Ffamily%3DArchitects%2BDaughter;fontSize=20;" vertex="1" parent="1">
          <mxGeometry x="490" y="330" width="30" height="60" as="geometry" />
        </mxCell>
        <mxCell id="LXHgbnVBe5iBIq8MEzDh-14" value="" style="rounded=0;whiteSpace=wrap;html=1;sketch=1;hachureGap=4;jiggle=2;curveFitting=1;fontFamily=Architects Daughter;fontSource=https%3A%2F%2Ffonts.googleapis.com%2Fcss%3Ffamily%3DArchitects%2BDaughter;fontSize=20;" vertex="1" parent="1">
          <mxGeometry x="530" y="330" width="30" height="60" as="geometry" />
        </mxCell>
        <mxCell id="LXHgbnVBe5iBIq8MEzDh-15" value="" style="rounded=0;whiteSpace=wrap;html=1;sketch=1;hachureGap=4;jiggle=2;curveFitting=1;fontFamily=Architects Daughter;fontSource=https%3A%2F%2Ffonts.googleapis.com%2Fcss%3Ffamily%3DArchitects%2BDaughter;fontSize=20;" vertex="1" parent="1">
          <mxGeometry x="170" y="400" width="30" height="60" as="geometry" />
        </mxCell>
        <mxCell id="LXHgbnVBe5iBIq8MEzDh-16" value="" style="rounded=0;whiteSpace=wrap;html=1;sketch=1;hachureGap=4;jiggle=2;curveFitting=1;fontFamily=Architects Daughter;fontSource=https%3A%2F%2Ffonts.googleapis.com%2Fcss%3Ffamily%3DArchitects%2BDaughter;fontSize=20;" vertex="1" parent="1">
          <mxGeometry x="210" y="400" width="30" height="60" as="geometry" />
        </mxCell>
        <mxCell id="LXHgbnVBe5iBIq8MEzDh-17" value="" style="rounded=0;whiteSpace=wrap;html=1;sketch=1;hachureGap=4;jiggle=2;curveFitting=1;fontFamily=Architects Daughter;fontSource=https%3A%2F%2Ffonts.googleapis.com%2Fcss%3Ffamily%3DArchitects%2BDaughter;fontSize=20;" vertex="1" parent="1">
          <mxGeometry x="250" y="400" width="30" height="60" as="geometry" />
        </mxCell>
        <mxCell id="LXHgbnVBe5iBIq8MEzDh-18" value="" style="rounded=0;whiteSpace=wrap;html=1;sketch=1;hachureGap=4;jiggle=2;curveFitting=1;fontFamily=Architects Daughter;fontSource=https%3A%2F%2Ffonts.googleapis.com%2Fcss%3Ffamily%3DArchitects%2BDaughter;fontSize=20;" vertex="1" parent="1">
          <mxGeometry x="290" y="400" width="30" height="60" as="geometry" />
        </mxCell>
        <mxCell id="LXHgbnVBe5iBIq8MEzDh-19" value="" style="rounded=0;whiteSpace=wrap;html=1;sketch=1;hachureGap=4;jiggle=2;curveFitting=1;fontFamily=Architects Daughter;fontSource=https%3A%2F%2Ffonts.googleapis.com%2Fcss%3Ffamily%3DArchitects%2BDaughter;fontSize=20;" vertex="1" parent="1">
          <mxGeometry x="330" y="400" width="30" height="60" as="geometry" />
        </mxCell>
        <mxCell id="LXHgbnVBe5iBIq8MEzDh-20" value="" style="rounded=0;whiteSpace=wrap;html=1;sketch=1;hachureGap=4;jiggle=2;curveFitting=1;fontFamily=Architects Daughter;fontSource=https%3A%2F%2Ffonts.googleapis.com%2Fcss%3Ffamily%3DArchitects%2BDaughter;fontSize=20;" vertex="1" parent="1">
          <mxGeometry x="370" y="400" width="30" height="60" as="geometry" />
        </mxCell>
        <mxCell id="LXHgbnVBe5iBIq8MEzDh-21" value="" style="rounded=0;whiteSpace=wrap;html=1;sketch=1;hachureGap=4;jiggle=2;curveFitting=1;fontFamily=Architects Daughter;fontSource=https%3A%2F%2Ffonts.googleapis.com%2Fcss%3Ffamily%3DArchitects%2BDaughter;fontSize=20;" vertex="1" parent="1">
          <mxGeometry x="410" y="400" width="30" height="60" as="geometry" />
        </mxCell>
        <mxCell id="LXHgbnVBe5iBIq8MEzDh-22" value="" style="rounded=0;whiteSpace=wrap;html=1;sketch=1;hachureGap=4;jiggle=2;curveFitting=1;fontFamily=Architects Daughter;fontSource=https%3A%2F%2Ffonts.googleapis.com%2Fcss%3Ffamily%3DArchitects%2BDaughter;fontSize=20;" vertex="1" parent="1">
          <mxGeometry x="490" y="400" width="30" height="60" as="geometry" />
        </mxCell>
        <mxCell id="LXHgbnVBe5iBIq8MEzDh-23" value="" style="rounded=0;whiteSpace=wrap;html=1;sketch=1;hachureGap=4;jiggle=2;curveFitting=1;fontFamily=Architects Daughter;fontSource=https%3A%2F%2Ffonts.googleapis.com%2Fcss%3Ffamily%3DArchitects%2BDaughter;fontSize=20;" vertex="1" parent="1">
          <mxGeometry x="530" y="400" width="30" height="60" as="geometry" />
        </mxCell>
        <mxCell id="LXHgbnVBe5iBIq8MEzDh-24" value="" style="rounded=0;whiteSpace=wrap;html=1;sketch=1;hachureGap=4;jiggle=2;curveFitting=1;fontFamily=Architects Daughter;fontSource=https%3A%2F%2Ffonts.googleapis.com%2Fcss%3Ffamily%3DArchitects%2BDaughter;fontSize=20;" vertex="1" parent="1">
          <mxGeometry x="450" y="400" width="30" height="60" as="geometry" />
        </mxCell>
        <mxCell id="LXHgbnVBe5iBIq8MEzDh-25" value="" style="rounded=0;whiteSpace=wrap;html=1;sketch=1;hachureGap=4;jiggle=2;curveFitting=1;fontFamily=Architects Daughter;fontSource=https%3A%2F%2Ffonts.googleapis.com%2Fcss%3Ffamily%3DArchitects%2BDaughter;fontSize=20;" vertex="1" parent="1">
          <mxGeometry x="170" y="470" width="30" height="60" as="geometry" />
        </mxCell>
        <mxCell id="LXHgbnVBe5iBIq8MEzDh-26" value="" style="rounded=0;whiteSpace=wrap;html=1;sketch=1;hachureGap=4;jiggle=2;curveFitting=1;fontFamily=Architects Daughter;fontSource=https%3A%2F%2Ffonts.googleapis.com%2Fcss%3Ffamily%3DArchitects%2BDaughter;fontSize=20;" vertex="1" parent="1">
          <mxGeometry x="210" y="470" width="30" height="60" as="geometry" />
        </mxCell>
        <mxCell id="LXHgbnVBe5iBIq8MEzDh-27" value="" style="rounded=0;whiteSpace=wrap;html=1;sketch=1;hachureGap=4;jiggle=2;curveFitting=1;fontFamily=Architects Daughter;fontSource=https%3A%2F%2Ffonts.googleapis.com%2Fcss%3Ffamily%3DArchitects%2BDaughter;fontSize=20;" vertex="1" parent="1">
          <mxGeometry x="250" y="470" width="30" height="60" as="geometry" />
        </mxCell>
        <mxCell id="LXHgbnVBe5iBIq8MEzDh-28" value="" style="rounded=0;whiteSpace=wrap;html=1;sketch=1;hachureGap=4;jiggle=2;curveFitting=1;fontFamily=Architects Daughter;fontSource=https%3A%2F%2Ffonts.googleapis.com%2Fcss%3Ffamily%3DArchitects%2BDaughter;fontSize=20;" vertex="1" parent="1">
          <mxGeometry x="290" y="470" width="30" height="60" as="geometry" />
        </mxCell>
        <mxCell id="LXHgbnVBe5iBIq8MEzDh-29" value="" style="rounded=0;whiteSpace=wrap;html=1;sketch=1;hachureGap=4;jiggle=2;curveFitting=1;fontFamily=Architects Daughter;fontSource=https%3A%2F%2Ffonts.googleapis.com%2Fcss%3Ffamily%3DArchitects%2BDaughter;fontSize=20;" vertex="1" parent="1">
          <mxGeometry x="330" y="470" width="30" height="60" as="geometry" />
        </mxCell>
        <mxCell id="LXHgbnVBe5iBIq8MEzDh-30" value="" style="rounded=0;whiteSpace=wrap;html=1;sketch=1;hachureGap=4;jiggle=2;curveFitting=1;fontFamily=Architects Daughter;fontSource=https%3A%2F%2Ffonts.googleapis.com%2Fcss%3Ffamily%3DArchitects%2BDaughter;fontSize=20;" vertex="1" parent="1">
          <mxGeometry x="370" y="470" width="30" height="60" as="geometry" />
        </mxCell>
        <mxCell id="LXHgbnVBe5iBIq8MEzDh-31" value="" style="rounded=0;whiteSpace=wrap;html=1;sketch=1;hachureGap=4;jiggle=2;curveFitting=1;fontFamily=Architects Daughter;fontSource=https%3A%2F%2Ffonts.googleapis.com%2Fcss%3Ffamily%3DArchitects%2BDaughter;fontSize=20;" vertex="1" parent="1">
          <mxGeometry x="410" y="470" width="30" height="60" as="geometry" />
        </mxCell>
        <mxCell id="LXHgbnVBe5iBIq8MEzDh-32" value="" style="rounded=0;whiteSpace=wrap;html=1;sketch=1;hachureGap=4;jiggle=2;curveFitting=1;fontFamily=Architects Daughter;fontSource=https%3A%2F%2Ffonts.googleapis.com%2Fcss%3Ffamily%3DArchitects%2BDaughter;fontSize=20;" vertex="1" parent="1">
          <mxGeometry x="490" y="470" width="30" height="60" as="geometry" />
        </mxCell>
        <mxCell id="LXHgbnVBe5iBIq8MEzDh-33" value="" style="rounded=0;whiteSpace=wrap;html=1;sketch=1;hachureGap=4;jiggle=2;curveFitting=1;fontFamily=Architects Daughter;fontSource=https%3A%2F%2Ffonts.googleapis.com%2Fcss%3Ffamily%3DArchitects%2BDaughter;fontSize=20;" vertex="1" parent="1">
          <mxGeometry x="530" y="470" width="30" height="60" as="geometry" />
        </mxCell>
        <mxCell id="LXHgbnVBe5iBIq8MEzDh-34" value="" style="rounded=0;whiteSpace=wrap;html=1;sketch=1;hachureGap=4;jiggle=2;curveFitting=1;fontFamily=Architects Daughter;fontSource=https%3A%2F%2Ffonts.googleapis.com%2Fcss%3Ffamily%3DArchitects%2BDaughter;fontSize=20;" vertex="1" parent="1">
          <mxGeometry x="450" y="470" width="30" height="60" as="geometry" />
        </mxCell>
        <mxCell id="LXHgbnVBe5iBIq8MEzDh-35" value="" style="rounded=0;whiteSpace=wrap;html=1;sketch=1;hachureGap=4;jiggle=2;curveFitting=1;fontFamily=Architects Daughter;fontSource=https%3A%2F%2Ffonts.googleapis.com%2Fcss%3Ffamily%3DArchitects%2BDaughter;fontSize=20;" vertex="1" parent="1">
          <mxGeometry x="170" y="-60" width="420" height="280" as="geometry" />
        </mxCell>
        <mxCell id="LXHgbnVBe5iBIq8MEzDh-36" value="Computer&#39;s memory" style="text;html=1;strokeColor=none;fillColor=none;align=center;verticalAlign=middle;whiteSpace=wrap;rounded=0;fontSize=20;fontFamily=Architects Daughter;" vertex="1" parent="1">
          <mxGeometry x="150" y="-50" width="250" height="30" as="geometry" />
        </mxCell>
        <mxCell id="LXHgbnVBe5iBIq8MEzDh-37" value="" style="rounded=0;whiteSpace=wrap;html=1;sketch=1;hachureGap=4;jiggle=2;curveFitting=1;fontFamily=Architects Daughter;fontSource=https%3A%2F%2Ffonts.googleapis.com%2Fcss%3Ffamily%3DArchitects%2BDaughter;fontSize=20;" vertex="1" parent="1">
          <mxGeometry x="180" y="-10" width="30" height="60" as="geometry" />
        </mxCell>
        <mxCell id="LXHgbnVBe5iBIq8MEzDh-38" value="" style="rounded=0;whiteSpace=wrap;html=1;sketch=1;hachureGap=4;jiggle=2;curveFitting=1;fontFamily=Architects Daughter;fontSource=https%3A%2F%2Ffonts.googleapis.com%2Fcss%3Ffamily%3DArchitects%2BDaughter;fontSize=20;" vertex="1" parent="1">
          <mxGeometry x="220" y="-10" width="30" height="60" as="geometry" />
        </mxCell>
        <mxCell id="LXHgbnVBe5iBIq8MEzDh-39" value="" style="rounded=0;whiteSpace=wrap;html=1;sketch=1;hachureGap=4;jiggle=2;curveFitting=1;fontFamily=Architects Daughter;fontSource=https%3A%2F%2Ffonts.googleapis.com%2Fcss%3Ffamily%3DArchitects%2BDaughter;fontSize=20;" vertex="1" parent="1">
          <mxGeometry x="260" y="-10" width="30" height="60" as="geometry" />
        </mxCell>
        <mxCell id="LXHgbnVBe5iBIq8MEzDh-40" value="" style="rounded=0;whiteSpace=wrap;html=1;sketch=1;hachureGap=4;jiggle=2;curveFitting=1;fontFamily=Architects Daughter;fontSource=https%3A%2F%2Ffonts.googleapis.com%2Fcss%3Ffamily%3DArchitects%2BDaughter;fontSize=20;" vertex="1" parent="1">
          <mxGeometry x="300" y="-10" width="30" height="60" as="geometry" />
        </mxCell>
        <mxCell id="LXHgbnVBe5iBIq8MEzDh-41" value="" style="rounded=0;whiteSpace=wrap;html=1;sketch=1;hachureGap=4;jiggle=2;curveFitting=1;fontFamily=Architects Daughter;fontSource=https%3A%2F%2Ffonts.googleapis.com%2Fcss%3Ffamily%3DArchitects%2BDaughter;fontSize=20;" vertex="1" parent="1">
          <mxGeometry x="340" y="-10" width="30" height="60" as="geometry" />
        </mxCell>
        <mxCell id="LXHgbnVBe5iBIq8MEzDh-42" value="" style="rounded=0;whiteSpace=wrap;html=1;sketch=1;hachureGap=4;jiggle=2;curveFitting=1;fontFamily=Architects Daughter;fontSource=https%3A%2F%2Ffonts.googleapis.com%2Fcss%3Ffamily%3DArchitects%2BDaughter;fontSize=20;" vertex="1" parent="1">
          <mxGeometry x="380" y="-10" width="30" height="60" as="geometry" />
        </mxCell>
        <mxCell id="LXHgbnVBe5iBIq8MEzDh-43" value="" style="rounded=0;whiteSpace=wrap;html=1;sketch=1;hachureGap=4;jiggle=2;curveFitting=1;fontFamily=Architects Daughter;fontSource=https%3A%2F%2Ffonts.googleapis.com%2Fcss%3Ffamily%3DArchitects%2BDaughter;fontSize=20;" vertex="1" parent="1">
          <mxGeometry x="420" y="-10" width="30" height="60" as="geometry" />
        </mxCell>
        <mxCell id="LXHgbnVBe5iBIq8MEzDh-44" value="" style="rounded=0;whiteSpace=wrap;html=1;sketch=1;hachureGap=4;jiggle=2;curveFitting=1;fontFamily=Architects Daughter;fontSource=https%3A%2F%2Ffonts.googleapis.com%2Fcss%3Ffamily%3DArchitects%2BDaughter;fontSize=20;" vertex="1" parent="1">
          <mxGeometry x="460" y="-10" width="30" height="60" as="geometry" />
        </mxCell>
        <mxCell id="LXHgbnVBe5iBIq8MEzDh-45" value="" style="rounded=0;whiteSpace=wrap;html=1;sketch=1;hachureGap=4;jiggle=2;curveFitting=1;fontFamily=Architects Daughter;fontSource=https%3A%2F%2Ffonts.googleapis.com%2Fcss%3Ffamily%3DArchitects%2BDaughter;fontSize=20;" vertex="1" parent="1">
          <mxGeometry x="500" y="-10" width="30" height="60" as="geometry" />
        </mxCell>
        <mxCell id="LXHgbnVBe5iBIq8MEzDh-46" value="" style="rounded=0;whiteSpace=wrap;html=1;sketch=1;hachureGap=4;jiggle=2;curveFitting=1;fontFamily=Architects Daughter;fontSource=https%3A%2F%2Ffonts.googleapis.com%2Fcss%3Ffamily%3DArchitects%2BDaughter;fontSize=20;" vertex="1" parent="1">
          <mxGeometry x="540" y="-10" width="30" height="60" as="geometry" />
        </mxCell>
        <mxCell id="LXHgbnVBe5iBIq8MEzDh-47" value="" style="rounded=0;whiteSpace=wrap;html=1;sketch=1;hachureGap=4;jiggle=2;curveFitting=1;fontFamily=Architects Daughter;fontSource=https%3A%2F%2Ffonts.googleapis.com%2Fcss%3Ffamily%3DArchitects%2BDaughter;fontSize=20;" vertex="1" parent="1">
          <mxGeometry x="180" y="60" width="30" height="60" as="geometry" />
        </mxCell>
        <mxCell id="LXHgbnVBe5iBIq8MEzDh-48" value="" style="rounded=0;whiteSpace=wrap;html=1;sketch=1;hachureGap=4;jiggle=2;curveFitting=1;fontFamily=Architects Daughter;fontSource=https%3A%2F%2Ffonts.googleapis.com%2Fcss%3Ffamily%3DArchitects%2BDaughter;fontSize=20;" vertex="1" parent="1">
          <mxGeometry x="220" y="60" width="30" height="60" as="geometry" />
        </mxCell>
        <mxCell id="LXHgbnVBe5iBIq8MEzDh-49" value="" style="rounded=0;whiteSpace=wrap;html=1;sketch=1;hachureGap=4;jiggle=2;curveFitting=1;fontFamily=Architects Daughter;fontSource=https%3A%2F%2Ffonts.googleapis.com%2Fcss%3Ffamily%3DArchitects%2BDaughter;fontSize=20;" vertex="1" parent="1">
          <mxGeometry x="260" y="60" width="30" height="60" as="geometry" />
        </mxCell>
        <mxCell id="LXHgbnVBe5iBIq8MEzDh-50" value="" style="rounded=0;whiteSpace=wrap;html=1;sketch=1;hachureGap=4;jiggle=2;curveFitting=1;fontFamily=Architects Daughter;fontSource=https%3A%2F%2Ffonts.googleapis.com%2Fcss%3Ffamily%3DArchitects%2BDaughter;fontSize=20;" vertex="1" parent="1">
          <mxGeometry x="300" y="60" width="30" height="60" as="geometry" />
        </mxCell>
        <mxCell id="LXHgbnVBe5iBIq8MEzDh-51" value="" style="rounded=0;whiteSpace=wrap;html=1;sketch=1;hachureGap=4;jiggle=2;curveFitting=1;fontFamily=Architects Daughter;fontSource=https%3A%2F%2Ffonts.googleapis.com%2Fcss%3Ffamily%3DArchitects%2BDaughter;fontSize=20;" vertex="1" parent="1">
          <mxGeometry x="340" y="60" width="30" height="60" as="geometry" />
        </mxCell>
        <mxCell id="LXHgbnVBe5iBIq8MEzDh-52" value="" style="rounded=0;whiteSpace=wrap;html=1;sketch=1;hachureGap=4;jiggle=2;curveFitting=1;fontFamily=Architects Daughter;fontSource=https%3A%2F%2Ffonts.googleapis.com%2Fcss%3Ffamily%3DArchitects%2BDaughter;fontSize=20;" vertex="1" parent="1">
          <mxGeometry x="380" y="60" width="30" height="60" as="geometry" />
        </mxCell>
        <mxCell id="LXHgbnVBe5iBIq8MEzDh-53" value="" style="rounded=0;whiteSpace=wrap;html=1;sketch=1;hachureGap=4;jiggle=2;curveFitting=1;fontFamily=Architects Daughter;fontSource=https%3A%2F%2Ffonts.googleapis.com%2Fcss%3Ffamily%3DArchitects%2BDaughter;fontSize=20;" vertex="1" parent="1">
          <mxGeometry x="420" y="60" width="30" height="60" as="geometry" />
        </mxCell>
        <mxCell id="LXHgbnVBe5iBIq8MEzDh-54" value="" style="rounded=0;whiteSpace=wrap;html=1;sketch=1;hachureGap=4;jiggle=2;curveFitting=1;fontFamily=Architects Daughter;fontSource=https%3A%2F%2Ffonts.googleapis.com%2Fcss%3Ffamily%3DArchitects%2BDaughter;fontSize=20;" vertex="1" parent="1">
          <mxGeometry x="500" y="60" width="30" height="60" as="geometry" />
        </mxCell>
        <mxCell id="LXHgbnVBe5iBIq8MEzDh-55" value="" style="rounded=0;whiteSpace=wrap;html=1;sketch=1;hachureGap=4;jiggle=2;curveFitting=1;fontFamily=Architects Daughter;fontSource=https%3A%2F%2Ffonts.googleapis.com%2Fcss%3Ffamily%3DArchitects%2BDaughter;fontSize=20;" vertex="1" parent="1">
          <mxGeometry x="540" y="60" width="30" height="60" as="geometry" />
        </mxCell>
        <mxCell id="LXHgbnVBe5iBIq8MEzDh-56" value="" style="rounded=0;whiteSpace=wrap;html=1;sketch=1;hachureGap=4;jiggle=2;curveFitting=1;fontFamily=Architects Daughter;fontSource=https%3A%2F%2Ffonts.googleapis.com%2Fcss%3Ffamily%3DArchitects%2BDaughter;fontSize=20;" vertex="1" parent="1">
          <mxGeometry x="460" y="60" width="30" height="60" as="geometry" />
        </mxCell>
        <mxCell id="LXHgbnVBe5iBIq8MEzDh-68" value="&lt;font style=&quot;font-size: 17px;&quot;&gt;null&lt;/font&gt;" style="text;html=1;strokeColor=none;fillColor=none;align=center;verticalAlign=middle;whiteSpace=wrap;rounded=0;fontSize=20;fontFamily=Architects Daughter;rotation=-90;" vertex="1" parent="1">
          <mxGeometry x="175" y="75" width="40" height="30" as="geometry" />
        </mxCell>
        <mxCell id="LXHgbnVBe5iBIq8MEzDh-70" value="&lt;font style=&quot;font-size: 17px;&quot;&gt;null&lt;/font&gt;" style="text;html=1;strokeColor=none;fillColor=none;align=center;verticalAlign=middle;whiteSpace=wrap;rounded=0;fontSize=20;fontFamily=Architects Daughter;rotation=-90;" vertex="1" parent="1">
          <mxGeometry x="215" y="75" width="40" height="30" as="geometry" />
        </mxCell>
        <mxCell id="LXHgbnVBe5iBIq8MEzDh-71" value="&lt;font style=&quot;font-size: 17px;&quot;&gt;null&lt;/font&gt;" style="text;html=1;strokeColor=none;fillColor=none;align=center;verticalAlign=middle;whiteSpace=wrap;rounded=0;fontSize=20;fontFamily=Architects Daughter;rotation=-90;" vertex="1" parent="1">
          <mxGeometry x="255" y="75" width="40" height="30" as="geometry" />
        </mxCell>
        <mxCell id="LXHgbnVBe5iBIq8MEzDh-72" value="&lt;font style=&quot;font-size: 17px;&quot;&gt;null&lt;/font&gt;" style="text;html=1;strokeColor=none;fillColor=none;align=center;verticalAlign=middle;whiteSpace=wrap;rounded=0;fontSize=20;fontFamily=Architects Daughter;rotation=-90;" vertex="1" parent="1">
          <mxGeometry x="295" y="75" width="40" height="30" as="geometry" />
        </mxCell>
        <mxCell id="LXHgbnVBe5iBIq8MEzDh-73" value="&lt;font style=&quot;font-size: 17px;&quot;&gt;null&lt;/font&gt;" style="text;html=1;strokeColor=none;fillColor=none;align=center;verticalAlign=middle;whiteSpace=wrap;rounded=0;fontSize=20;fontFamily=Architects Daughter;rotation=-90;" vertex="1" parent="1">
          <mxGeometry x="335" y="75" width="40" height="30" as="geometry" />
        </mxCell>
        <mxCell id="LXHgbnVBe5iBIq8MEzDh-74" value="&lt;font style=&quot;font-size: 17px;&quot;&gt;null&lt;/font&gt;" style="text;html=1;strokeColor=none;fillColor=none;align=center;verticalAlign=middle;whiteSpace=wrap;rounded=0;fontSize=20;fontFamily=Architects Daughter;rotation=-90;" vertex="1" parent="1">
          <mxGeometry x="374" y="75" width="40" height="30" as="geometry" />
        </mxCell>
        <mxCell id="LXHgbnVBe5iBIq8MEzDh-75" value="&lt;font style=&quot;font-size: 17px;&quot;&gt;null&lt;/font&gt;" style="text;html=1;strokeColor=none;fillColor=none;align=center;verticalAlign=middle;whiteSpace=wrap;rounded=0;fontSize=20;fontFamily=Architects Daughter;rotation=-90;" vertex="1" parent="1">
          <mxGeometry x="414" y="75" width="40" height="30" as="geometry" />
        </mxCell>
        <mxCell id="LXHgbnVBe5iBIq8MEzDh-76" value="&lt;font style=&quot;font-size: 17px;&quot;&gt;null&lt;/font&gt;" style="text;html=1;strokeColor=none;fillColor=none;align=center;verticalAlign=middle;whiteSpace=wrap;rounded=0;fontSize=20;fontFamily=Architects Daughter;rotation=-90;" vertex="1" parent="1">
          <mxGeometry x="455" y="75" width="40" height="30" as="geometry" />
        </mxCell>
        <mxCell id="LXHgbnVBe5iBIq8MEzDh-77" value="&lt;font style=&quot;font-size: 17px;&quot;&gt;null&lt;/font&gt;" style="text;html=1;strokeColor=none;fillColor=none;align=center;verticalAlign=middle;whiteSpace=wrap;rounded=0;fontSize=20;fontFamily=Architects Daughter;rotation=-90;" vertex="1" parent="1">
          <mxGeometry x="495" y="75" width="40" height="30" as="geometry" />
        </mxCell>
        <mxCell id="LXHgbnVBe5iBIq8MEzDh-78" value="&lt;font style=&quot;font-size: 17px;&quot;&gt;null&lt;/font&gt;" style="text;html=1;strokeColor=none;fillColor=none;align=center;verticalAlign=middle;whiteSpace=wrap;rounded=0;fontSize=20;fontFamily=Architects Daughter;rotation=-90;" vertex="1" parent="1">
          <mxGeometry x="535" y="75" width="40" height="30" as="geometry" />
        </mxCell>
        <mxCell id="LXHgbnVBe5iBIq8MEzDh-79" value="" style="rounded=0;whiteSpace=wrap;html=1;sketch=1;hachureGap=4;jiggle=2;curveFitting=1;fontFamily=Architects Daughter;fontSource=https%3A%2F%2Ffonts.googleapis.com%2Fcss%3Ffamily%3DArchitects%2BDaughter;fontSize=20;" vertex="1" parent="1">
          <mxGeometry x="180" y="130" width="30" height="60" as="geometry" />
        </mxCell>
        <mxCell id="LXHgbnVBe5iBIq8MEzDh-80" value="" style="rounded=0;whiteSpace=wrap;html=1;sketch=1;hachureGap=4;jiggle=2;curveFitting=1;fontFamily=Architects Daughter;fontSource=https%3A%2F%2Ffonts.googleapis.com%2Fcss%3Ffamily%3DArchitects%2BDaughter;fontSize=20;" vertex="1" parent="1">
          <mxGeometry x="220" y="130" width="30" height="60" as="geometry" />
        </mxCell>
        <mxCell id="LXHgbnVBe5iBIq8MEzDh-81" value="" style="rounded=0;whiteSpace=wrap;html=1;sketch=1;hachureGap=4;jiggle=2;curveFitting=1;fontFamily=Architects Daughter;fontSource=https%3A%2F%2Ffonts.googleapis.com%2Fcss%3Ffamily%3DArchitects%2BDaughter;fontSize=20;" vertex="1" parent="1">
          <mxGeometry x="260" y="130" width="30" height="60" as="geometry" />
        </mxCell>
        <mxCell id="LXHgbnVBe5iBIq8MEzDh-82" value="" style="rounded=0;whiteSpace=wrap;html=1;sketch=1;hachureGap=4;jiggle=2;curveFitting=1;fontFamily=Architects Daughter;fontSource=https%3A%2F%2Ffonts.googleapis.com%2Fcss%3Ffamily%3DArchitects%2BDaughter;fontSize=20;" vertex="1" parent="1">
          <mxGeometry x="300" y="130" width="30" height="60" as="geometry" />
        </mxCell>
        <mxCell id="LXHgbnVBe5iBIq8MEzDh-83" value="" style="rounded=0;whiteSpace=wrap;html=1;sketch=1;hachureGap=4;jiggle=2;curveFitting=1;fontFamily=Architects Daughter;fontSource=https%3A%2F%2Ffonts.googleapis.com%2Fcss%3Ffamily%3DArchitects%2BDaughter;fontSize=20;" vertex="1" parent="1">
          <mxGeometry x="340" y="130" width="30" height="60" as="geometry" />
        </mxCell>
        <mxCell id="LXHgbnVBe5iBIq8MEzDh-84" value="" style="rounded=0;whiteSpace=wrap;html=1;sketch=1;hachureGap=4;jiggle=2;curveFitting=1;fontFamily=Architects Daughter;fontSource=https%3A%2F%2Ffonts.googleapis.com%2Fcss%3Ffamily%3DArchitects%2BDaughter;fontSize=20;" vertex="1" parent="1">
          <mxGeometry x="380" y="130" width="30" height="60" as="geometry" />
        </mxCell>
        <mxCell id="LXHgbnVBe5iBIq8MEzDh-85" value="" style="rounded=0;whiteSpace=wrap;html=1;sketch=1;hachureGap=4;jiggle=2;curveFitting=1;fontFamily=Architects Daughter;fontSource=https%3A%2F%2Ffonts.googleapis.com%2Fcss%3Ffamily%3DArchitects%2BDaughter;fontSize=20;" vertex="1" parent="1">
          <mxGeometry x="420" y="130" width="30" height="60" as="geometry" />
        </mxCell>
        <mxCell id="LXHgbnVBe5iBIq8MEzDh-86" value="" style="rounded=0;whiteSpace=wrap;html=1;sketch=1;hachureGap=4;jiggle=2;curveFitting=1;fontFamily=Architects Daughter;fontSource=https%3A%2F%2Ffonts.googleapis.com%2Fcss%3Ffamily%3DArchitects%2BDaughter;fontSize=20;" vertex="1" parent="1">
          <mxGeometry x="500" y="130" width="30" height="60" as="geometry" />
        </mxCell>
        <mxCell id="LXHgbnVBe5iBIq8MEzDh-87" value="" style="rounded=0;whiteSpace=wrap;html=1;sketch=1;hachureGap=4;jiggle=2;curveFitting=1;fontFamily=Architects Daughter;fontSource=https%3A%2F%2Ffonts.googleapis.com%2Fcss%3Ffamily%3DArchitects%2BDaughter;fontSize=20;" vertex="1" parent="1">
          <mxGeometry x="540" y="130" width="30" height="60" as="geometry" />
        </mxCell>
        <mxCell id="LXHgbnVBe5iBIq8MEzDh-88" value="" style="rounded=0;whiteSpace=wrap;html=1;sketch=1;hachureGap=4;jiggle=2;curveFitting=1;fontFamily=Architects Daughter;fontSource=https%3A%2F%2Ffonts.googleapis.com%2Fcss%3Ffamily%3DArchitects%2BDaughter;fontSize=20;" vertex="1" parent="1">
          <mxGeometry x="460" y="130" width="30" height="60" as="geometry" />
        </mxCell>
        <mxCell id="LXHgbnVBe5iBIq8MEzDh-89" value="&lt;font style=&quot;font-size: 17px;&quot;&gt;null&lt;/font&gt;" style="text;html=1;strokeColor=none;fillColor=none;align=center;verticalAlign=middle;whiteSpace=wrap;rounded=0;fontSize=20;fontFamily=Architects Daughter;rotation=-90;" vertex="1" parent="1">
          <mxGeometry x="175" y="145" width="40" height="30" as="geometry" />
        </mxCell>
        <mxCell id="LXHgbnVBe5iBIq8MEzDh-90" value="&lt;font style=&quot;font-size: 17px;&quot;&gt;null&lt;/font&gt;" style="text;html=1;strokeColor=none;fillColor=none;align=center;verticalAlign=middle;whiteSpace=wrap;rounded=0;fontSize=20;fontFamily=Architects Daughter;rotation=-90;" vertex="1" parent="1">
          <mxGeometry x="215" y="145" width="40" height="30" as="geometry" />
        </mxCell>
        <mxCell id="LXHgbnVBe5iBIq8MEzDh-91" value="&lt;font style=&quot;font-size: 17px;&quot;&gt;null&lt;/font&gt;" style="text;html=1;strokeColor=none;fillColor=none;align=center;verticalAlign=middle;whiteSpace=wrap;rounded=0;fontSize=20;fontFamily=Architects Daughter;rotation=-90;" vertex="1" parent="1">
          <mxGeometry x="255" y="145" width="40" height="30" as="geometry" />
        </mxCell>
        <mxCell id="LXHgbnVBe5iBIq8MEzDh-92" value="&lt;font style=&quot;font-size: 17px;&quot;&gt;null&lt;/font&gt;" style="text;html=1;strokeColor=none;fillColor=none;align=center;verticalAlign=middle;whiteSpace=wrap;rounded=0;fontSize=20;fontFamily=Architects Daughter;rotation=-90;" vertex="1" parent="1">
          <mxGeometry x="295" y="145" width="40" height="30" as="geometry" />
        </mxCell>
        <mxCell id="LXHgbnVBe5iBIq8MEzDh-93" value="&lt;font style=&quot;font-size: 17px;&quot;&gt;null&lt;/font&gt;" style="text;html=1;strokeColor=none;fillColor=none;align=center;verticalAlign=middle;whiteSpace=wrap;rounded=0;fontSize=20;fontFamily=Architects Daughter;rotation=-90;" vertex="1" parent="1">
          <mxGeometry x="335" y="145" width="40" height="30" as="geometry" />
        </mxCell>
        <mxCell id="LXHgbnVBe5iBIq8MEzDh-94" value="&lt;font style=&quot;font-size: 17px;&quot;&gt;null&lt;/font&gt;" style="text;html=1;strokeColor=none;fillColor=none;align=center;verticalAlign=middle;whiteSpace=wrap;rounded=0;fontSize=20;fontFamily=Architects Daughter;rotation=-90;" vertex="1" parent="1">
          <mxGeometry x="374" y="145" width="40" height="30" as="geometry" />
        </mxCell>
        <mxCell id="LXHgbnVBe5iBIq8MEzDh-95" value="&lt;font style=&quot;font-size: 17px;&quot;&gt;null&lt;/font&gt;" style="text;html=1;strokeColor=none;fillColor=none;align=center;verticalAlign=middle;whiteSpace=wrap;rounded=0;fontSize=20;fontFamily=Architects Daughter;rotation=-90;" vertex="1" parent="1">
          <mxGeometry x="414" y="145" width="40" height="30" as="geometry" />
        </mxCell>
        <mxCell id="LXHgbnVBe5iBIq8MEzDh-96" value="&lt;font style=&quot;font-size: 17px;&quot;&gt;null&lt;/font&gt;" style="text;html=1;strokeColor=none;fillColor=none;align=center;verticalAlign=middle;whiteSpace=wrap;rounded=0;fontSize=20;fontFamily=Architects Daughter;rotation=-90;" vertex="1" parent="1">
          <mxGeometry x="455" y="145" width="40" height="30" as="geometry" />
        </mxCell>
        <mxCell id="LXHgbnVBe5iBIq8MEzDh-97" value="&lt;font style=&quot;font-size: 17px;&quot;&gt;null&lt;/font&gt;" style="text;html=1;strokeColor=none;fillColor=none;align=center;verticalAlign=middle;whiteSpace=wrap;rounded=0;fontSize=20;fontFamily=Architects Daughter;rotation=-90;" vertex="1" parent="1">
          <mxGeometry x="495" y="145" width="40" height="30" as="geometry" />
        </mxCell>
        <mxCell id="LXHgbnVBe5iBIq8MEzDh-98" value="&lt;font style=&quot;font-size: 17px;&quot;&gt;null&lt;/font&gt;" style="text;html=1;strokeColor=none;fillColor=none;align=center;verticalAlign=middle;whiteSpace=wrap;rounded=0;fontSize=20;fontFamily=Architects Daughter;rotation=-90;" vertex="1" parent="1">
          <mxGeometry x="535" y="145" width="40" height="30" as="geometry" />
        </mxCell>
        <mxCell id="LXHgbnVBe5iBIq8MEzDh-67" value="" style="rounded=1;whiteSpace=wrap;html=1;sketch=1;hachureGap=4;jiggle=2;curveFitting=1;fontFamily=Architects Daughter;fontSource=https%3A%2F%2Ffonts.googleapis.com%2Fcss%3Ffamily%3DArchitects%2BDaughter;fontSize=20;glass=0;shadow=0;perimeterSpacing=1;strokeColor=#FF0000;strokeWidth=4;opacity=60;" vertex="1" parent="1">
          <mxGeometry x="175" y="50" width="405" height="150" as="geometry" />
        </mxCell>
      </root>
    </mxGraphModel>
  </diagram>
</mxfile>
